<svg xmlns="http://www.w3.org/2000/svg" xmlns:xlink="http://www.w3.org/1999/xlink" width="120" height="120" viewBox="0 0 120 120"><defs><path id="esx5a" d="M977 1224h120v119.97H977z"/><path id="esx5c" d="M1097 1284a60 60 0 1 1-120 0 60 60 0 0 1 120 0"/><path id="esx5d" d="M1008.09 1253.93c0 .85-.47 1.47-1.5 1.47h-3.26v-2.9h3.29c.98 0 1.47.55 1.47 1.43zm-.35-5.76c0 .7-.34 1.17-1.3 1.17h-3.1V1247h3.1c.98 0 1.3.51 1.3 1.17zm-1.21 10.49c3.75 0 5.6-1.77 5.6-4.82 0-1.68-.78-2.73-2.13-3.3 1-.58 1.8-1.3 1.8-2.92 0-2.5-1.52-3.88-5.23-3.88h-7.2v14.92z"/><path id="esx5e" d="M1014.65 1258.66v-14.92h11.42v3.47h-7.33v1.99h4.41v3.43h-4.4v2.55h7.47v3.48h-11.57"/><path id="esx5f" d="M1034.26 1258.89c-2.41 0-4.73-.8-6.29-1.82l2-3.24a9 9 0 0 0 4.37 1.5c1.47 0 1.94-.26 1.94-.96 0-.56-.53-.9-2.53-1.37-3.6-.83-5.33-1.8-5.33-4.8 0-2.8 2.28-4.7 5.88-4.7a9.8 9.8 0 0 1 5.94 1.73l-2 3.23a7.23 7.23 0 0 0-4.15-1.4c-1.24 0-1.54.38-1.54.91 0 .56.53.81 2.45 1.26 3.75.9 5.41 2.05 5.41 4.84 0 3.4-2.57 4.82-6.15 4.82"/><path id="esx5g" d="M1050.16 1247.34v11.32h-4.13v-11.32h-4.18v-3.6h12.49v3.6h-4.18"/><path id="esx5h" d="M1065.53 1249.68c.3-1.4.92-2.7 1.7-3.52-1.91 1.54-3.2 2.23-5.26 4.45-.53.58-.98 1.29-1.31 2.16l2.2-1.39 2.67-1.7"/><path id="esx5i" d="M1056.86 1265.4a8.9 8.9 0 0 0-3.08 4.46c3.43-2.12 10.42-5.07 12.3-10.27a404.8 404.8 0 0 1-5.55 3.5c-1.68 1.04-3.13 1.93-3.67 2.31"/><path id="esx5j" d="M1069.96 1247.83c-1.88 1.43-11.7 7.4-13.62 8.88-1.86 1.42-3.41 3.74-3.56 5.86-.14 2.13 0 7.95 0 7.95 0-1.96 1.93-4.73 3.56-5.87 1.7-1.19 11.28-6.87 13.62-8.87 2.35-2 3.33-3.99 3.56-5.87.42-3.47.07-5.11 0-7.95-.21 1.95-1.63 4.4-3.56 5.87"/><path id="esx5k" d="M1005.98 1296.97v11.13h-2.77v-11.13h-3.98v-2.73h10.73v2.73h-3.98"/><path id="esx5l" d="M1017.86 1302.38h-3.17l.9-2.52c.27-.8.54-1.64.68-2.15.14.51.42 1.34.7 2.15zm2.04 5.72h3.05l-5.27-13.86h-2.7l-5.3 13.86h2.97l1.09-3.09h5.07z"/><path id="esx5m" d="M1025.44 1308.1v-13.86h2.77v11.13h6.95v2.73h-9.72"/><path id="esx5n" d="M1037.64 1308.1v-13.86h9.62v2.71h-6.85v2.4h3.98v2.7h-3.98v3.34h7.15v2.71h-9.92"/><path id="esx5o" d="M1059.18 1308.1l-5.09-7.56c-.33-.52-.79-1.21-.97-1.57 0 .52.04 2.26.04 3.03v6.1h-2.73v-13.86h2.65l4.91 7.33c.34.51.8 1.2.97 1.56 0-.51-.04-2.26-.04-3.03v-5.86h2.74v13.86h-2.48"/><path id="esx5p" d="M1071 1296.97v11.13h-2.77v-11.13h-3.98v-2.73h10.73v2.73H1071"/><path id="esx5q" d="M1044.41 1288.67c-.13.34-.3.66-.48.95h19.43c-.23-.3-.41-.62-.57-.95h-18.38"/><path id="esx5r" d="M999.19 1288.67v.95h26.73l.49-.95h-27.22"/><path id="esx5s" d="M999.19 1262.71v.95h19.48c.1-.34.24-.66.4-.95H999.2"/><path id="esx5t" d="M1049.83 1263.66v-.95h-18.78l-.34.95h19.12"/><path id="esx5u" d="M1009.54 1269.16l-1.65 2.49c-1.57-.95-2.74-1.32-4.04-1.32-1.42 0-2.42.82-2.42 2 0 .89.48 1.34 1.92 1.74l2.1.57c2.84.77 4.39 2.6 4.39 5.16 0 3.52-2.85 5.84-7.16 5.84a12.4 12.4 0 0 1-5.91-1.57l1.3-2.72c1.62.85 3.01 1.4 4.76 1.4 2 0 3.04-.83 3.04-2.37 0-1.13-.72-1.85-2.27-2.25l-1.92-.52c-1.72-.47-2.8-1.15-3.41-2.2a5 5 0 0 1-.73-2.64c0-3.16 2.55-5.36 6.21-5.36 2.12 0 4.27.65 5.79 1.75"/><path id="esx5v" d="M1018.17 1272.47l-.85 2.22h-2.14v6.5c0 1.63.3 2.05 1.44 2.05.3 0 .6-.07 1.2-.25l.43 2c-.98.4-1.85.57-2.72.57-1.7 0-3.07-.75-3.44-1.87-.2-.55-.23-.8-.23-1.97v-7.03h-1.27v-2.17h1.27c0-1.25 0-2.1.13-3.04l3.39-.85a37.7 37.7 0 0 0-.2 3.84h3"/><path id="esx5w" d="M1025.78 1282.42c-.5.55-1.12.87-1.74.87-.85 0-1.47-.67-1.47-1.67 0-1.52.8-1.94 3.11-1.94h.15zm-6.5-8.4l1.42 2.39c1.37-.92 2.61-1.45 3.69-1.45 1.22 0 1.5.48 1.5 1.9v.52c-.36-.02-.5-.02-.76-.02-4.06 0-6.13 1.4-6.13 4.39 0 2.54 1.55 3.99 4.39 3.99 1.05 0 1.94-.25 2.57-.7.25-.18.3-.23.77-.68a3.57 3.57 0 0 0 1.8 1.55l1.77-2.04c-.98-.73-1.2-1.25-1.2-2.62v-.23l.07-4.29c0-1.37-.05-1.77-.22-2.3-.5-1.41-1.97-2.21-4.11-2.21-1.18 0-2.25.22-3.5.75-.9.35-1.24.52-2.07 1.05z"/><path id="esx5x" d="M1048.64 1271.05c1.15 0 2.07-.92 2.07-2.07s-.9-2.07-2.02-2.07c-1.14 0-2.09.92-2.09 2.07s.92 2.07 2.04 2.07"/><path id="esx5y" d="M1042.68 1270.67c0-.92.55-1.45 1.4-1.45.27 0 .8.08 1.12.23l1.07-2.07a6.25 6.25 0 0 0-2.77-.6c-2.62 0-4.11 1.45-4.11 3.96 0 .5.12 1.2.12 1.73h-4.36v-1.8c0-.92.55-1.45 1.4-1.45.4 0 .64.08 1.36.43l1.08-2.07a5.77 5.77 0 0 0-3.02-.8c-2.62 0-4.11 1.45-4.11 3.96 0 .58.12 1.2.12 1.73h-1.22v2.34h1.15v1.36l.02 10.05c0 .93-.55 1.45-1.4 1.45-.27 0-.8-.08-1.12-.23l-1.07 2.07c.57.33 1.67.6 2.77.6 2.62 0 4.11-1.44 4.11-3.96l-.05-9.98v-1.36h4.27l.02 11.41c0 .93-.55 1.45-1.4 1.45-.4 0-.64-.08-1.37-.42l-1.07 2.06c1.02.58 1.92.8 3.02.8 2.62 0 4.11-1.44 4.11-3.96l-.05-11.34h4.27v10.45h3.34v-12.8h-7.63v-1.79"/><path id="esx5z" d="M1052.5 1273.02l2.97-.85c.3.52.47 1.07.47 1.6.77-.55.92-.65 1.47-.95a5.26 5.26 0 0 1 2.3-.55c1.42 0 2.66.75 3.06 1.84.18.48.25 1.03.25 1.82v9.33h-3.29v-8.3c0-1.45-.25-1.87-1.12-1.87-.67 0-1.55.45-2.32 1.14v9.03h-3.34v-9.25a9.2 9.2 0 0 0-.45-3"/><path id="esx5A" d="M1072.12 1276.6c0 1.18-.72 1.83-2.04 1.83-1.18 0-1.97-.53-1.97-1.82 0-1.2.72-1.9 2-1.9 1.26 0 2.01.7 2.01 1.9zm4.51-4.83c-.77.7-1.72 1.1-2.64 1.1-.42 0-.65-.05-1.57-.28a8.18 8.18 0 0 0-2.3-.32c-3.26 0-5.38 1.7-5.38 4.31 0 1.9.9 3.07 2.74 3.54-.75.18-1.57.55-1.94.98-.28.3-.4.7-.4 1.17 0 .4.1.75.25 1.05.17.27.42.5.72.62.6.22 1.57.37 3.07.4.77 0 1.24.02 1.42.02.92.05 1.4.2 1.75.38.34.2.6.64.6 1.14 0 .5-.33 1-.8 1.3-.45.3-1.18.42-2.12.42-1.55 0-2.4-.54-2.4-1.57 0-.45.05-.54.15-.82h-3.1c-.12.25-.29.6-.29 1.3a3 3 0 0 0 1.05 2.27c1.14 1.07 3.01 1.37 4.84 1.37 1.99 0 3.91-.45 5.03-1.65a3.63 3.63 0 0 0 1.03-2.64c0-1.15-.35-2.02-1.1-2.72-.9-.82-1.92-1.12-3.87-1.15l-1.8-.02c-.34 0-.54-.13-.54-.3 0-.35.47-.65 1.32-1.05.25.03.35.03.5.03 2.72 0 4.71-1.6 4.71-3.8 0-.84-.25-1.49-.75-2.09.43.05.55.08.88.08.92 0 1.62-.28 2.34-.95z"/><path id="esx5B" d="M1023.46 1263.9c.18.23.27.68.27 1.38 0 1.23-.25 1.76-.84 1.76a.75.75 0 0 1-.69-.43c-.11-.26-.17-.7-.17-1.3 0-.52.05-.89.14-1.16.11-.32.37-.53.7-.53.24 0 .45.1.59.28zm-.61-1.28c-1.4 0-2.33 1.08-2.33 2.71s.92 2.69 2.33 2.69c.8 0 1.32-.28 1.71-.72.45-.5.65-1.12.65-2 0-.85-.18-1.41-.6-1.9a2.17 2.17 0 0 0-1.76-.78z"/><path id="esx5C" d="M1027.5 1261.98c0-.37.22-.59.56-.59.17 0 .27.03.56.17l.44-.84a2.33 2.33 0 0 0-1.23-.32c-1.06 0-1.67.59-1.67 1.61 0 .23.02.49.05.7h-.5v.95h.47v5.08c0 .38-.21.59-.56.59-.16 0-.26-.03-.56-.17l-.43.84c.41.23.78.32 1.22.32 1.07 0 1.68-.59 1.68-1.61l-.02-5.05h.96l.34-.95h-1.31v-.73"/><path id="esx5D" d="M1081.43 1272.44c0 .16-.08.25-.3.25h-.38v-.5h.4c.2 0 .28.1.28.25zm.68 1.54l-.46-.88a.7.7 0 0 0 .42-.68c0-.55-.36-.76-.9-.76h-1.05v2.32h.64v-.78h.26l.37.78zm.6-1.1c0 1.02-.73 1.7-1.7 1.7s-1.7-.68-1.7-1.7c0-1.03.73-1.72 1.7-1.72s1.7.69 1.7 1.72zm-1.7 2.13a2.1 2.1 0 0 0 2.14-2.13 2.1 2.1 0 0 0-2.13-2.14 2.1 2.1 0 0 0-2.14 2.13 2.1 2.1 0 0 0 2.13 2.14z"/><path id="esx5E" d="M1001.86 1319.54a3.38 3.38 0 0 1-2.83-1.33l1.05-.94c.51.6 1.17.84 1.87.84.86 0 1.27-.24 1.27-.8 0-.46-.25-.67-1.63-.99-1.34-.3-2.28-.74-2.28-2.17 0-1.33 1.17-2.14 2.6-2.14 1.14 0 1.98.43 2.66 1.15l-1.05 1.02c-.47-.48-.99-.75-1.66-.75-.78 0-1.04.33-1.04.65 0 .46.31.6 1.47.88 1.16.27 2.44.67 2.44 2.25 0 1.39-.88 2.33-2.87 2.33"/><path id="esx5F" d="M1009.93 1316.41h-1.66l.47-1.32c.14-.43.29-.87.36-1.14.07.27.22.71.37 1.14zm1.08 3.02h1.6l-2.77-7.3h-1.42l-2.79 7.3h1.56l.58-1.63h2.66z"/><path id="esx5G" d="M1016.21 1313.57v5.86h-1.46v-5.86h-2.09v-1.44h5.65v1.44h-2.1"/><path id="esx5H" d="M1019.96 1319.43h1.46v-7.3h-1.46z"/><path id="esx5I" d="M1026.04 1319.54a3.38 3.38 0 0 1-2.84-1.33l1.05-.94c.51.6 1.17.84 1.87.84.86 0 1.27-.24 1.27-.8 0-.46-.25-.67-1.63-.99-1.34-.3-2.28-.74-2.28-2.17 0-1.33 1.17-2.14 2.6-2.14 1.14 0 1.98.43 2.66 1.15l-1.05 1.02a2.22 2.22 0 0 0-1.66-.75c-.78 0-1.04.33-1.04.65 0 .46.31.6 1.47.88 1.16.27 2.44.67 2.44 2.25 0 1.39-.87 2.33-2.87 2.33"/><path id="esx5J" d="M1032.05 1313.56v1.37h2.2v1.42h-2.2v3.08h-1.46v-7.3h5.22v1.43h-3.76"/><path id="esx5K" d="M1039.93 1316.41h-1.66l.47-1.32c.14-.43.29-.87.36-1.14.07.27.22.71.37 1.14zm1.08 3.02h1.6l-2.77-7.3h-1.42l-2.79 7.3h1.56l.58-1.63h2.67z"/><path id="esx5L" d="M1048.03 1314.25c-.27-.5-.68-.8-1.34-.8-1.1 0-1.72.97-1.72 2.32 0 1.31.64 2.32 1.73 2.32.66 0 1.04-.29 1.43-.93l1.23.73a2.79 2.79 0 0 1-2.7 1.64c-1.9 0-3.19-1.45-3.19-3.76 0-2.22 1.33-3.76 3.24-3.76 1.38 0 2.21.67 2.67 1.61l-1.36.63"/><path id="esx5M" d="M1053.92 1313.57v5.86h-1.46v-5.86h-2.09v-1.44h5.65v1.44h-2.1"/><path id="esx5N" d="M1057.68 1319.43h1.46v-7.3h-1.46z"/><path id="esx5O" d="M1065.72 1315.77c0 1.3-.5 2.32-1.67 2.32-1.18 0-1.67-1.01-1.67-2.32 0-1.3.5-2.31 1.67-2.31 1.18 0 1.67 1 1.67 2.31zm-1.67 3.77c1.99 0 3.17-1.55 3.17-3.77 0-2.22-1.18-3.76-3.17-3.76-2 0-3.17 1.54-3.17 3.76 0 2.22 1.18 3.77 3.17 3.77z"/><path id="esx5P" d="M1073.46 1319.43l-2.68-3.99c-.18-.27-.42-.63-.51-.82l.02 1.6v3.2h-1.44v-7.29h1.4l2.58 3.86c.18.27.42.63.51.82l-.02-1.6v-3.08h1.44v7.3h-1.3"/><path id="esx5Q" d="M1021.92 1323.3l.06-.03h-22.79v.95h23.3l-.57-.91"/><path id="esx5R" d="M1050.77 1323.27c.17.3.3.6.38.95h23.66v-.95h-24.04"/><path id="esx5S" d="M1024.21 1330.33c.06-2.48 1.23-3.67 3.06-4.49.77-.34.89-.46.89-.75 0-.32-.23-.5-.82-.5-.73 0-1.44.25-2.18.74l-.93-1.5c.93-.6 1.89-.95 3.14-.95 1.83 0 2.78.73 2.78 2.06 0 .97-.34 1.55-1.74 2.2-1.47.68-1.87 1.1-2.03 1.53h3.82v1.66h-5.99"/><path id="esx5T" d="M1035.78 1326.67c0 1.34-.44 2.02-1.23 2.02-.78 0-1.25-.7-1.25-2.04s.44-2.02 1.23-2.02 1.25.7 1.25 2.04zm-1.25 3.77c1.9 0 3.33-1.35 3.33-3.79s-1.4-3.77-3.3-3.77c-1.91 0-3.34 1.35-3.34 3.8 0 2.43 1.4 3.76 3.31 3.76z"/><path id="esx5U" d="M1039.95 1330.32v-5.05h-1.24V1324c.94-.06 1.32-.32 1.53-1h1.7v7.33h-2"/><path id="esx5V" d="M1047.6 1325.09c0 .37-.27.7-1.07.7s-1.09-.33-1.09-.7c0-.37.27-.73 1.07-.73s1.09.36 1.09.73zm.31 2.93c0 .5-.46.88-1.38.88-.92 0-1.4-.37-1.4-.88 0-.5.45-.87 1.38-.87.92 0 1.4.37 1.4.87zm-1.4 2.42c2.05 0 3.35-.9 3.35-2.4 0-.94-.67-1.44-1.14-1.63.46-.3.83-.7.83-1.35 0-1.4-1.25-2.18-3.02-2.18s-3.04.77-3.04 2.18c0 .66.4 1.1.83 1.37-.47.19-1.14.67-1.14 1.61 0 1.5 1.28 2.4 3.33 2.4z"/><clipPath id="esx5b"><use xlink:href="#esx5a"/></clipPath></defs><g><g transform="translate(-977 -1224)"><g><g/><g clip-path="url(#esx5b)"><use fill="#96c43e" xlink:href="#esx5c"/></g></g><g><use fill="#fffefe" xlink:href="#esx5d"/></g><g><use fill="#fffefe" xlink:href="#esx5e"/></g><g><use fill="#fffefe" xlink:href="#esx5f"/></g><g><use fill="#fffefe" xlink:href="#esx5g"/></g><g><use fill="#fffefe" xlink:href="#esx5h"/></g><g><use fill="#fffefe" xlink:href="#esx5i"/></g><g><use fill="#fffefe" xlink:href="#esx5j"/></g><g><use fill="#fffefe" xlink:href="#esx5k"/></g><g><use fill="#fffefe" xlink:href="#esx5l"/></g><g><use fill="#fffefe" xlink:href="#esx5m"/></g><g><use fill="#fffefe" xlink:href="#esx5n"/></g><g><use fill="#fffefe" xlink:href="#esx5o"/></g><g><use fill="#fffefe" xlink:href="#esx5p"/></g><g><use fill="#fffefe" xlink:href="#esx5q"/></g><g><use fill="#fffefe" xlink:href="#esx5r"/></g><g><use fill="#fffefe" xlink:href="#esx5s"/></g><g><use fill="#fffefe" xlink:href="#esx5t"/></g><g><use fill="#fffefe" xlink:href="#esx5u"/></g><g><use fill="#fffefe" xlink:href="#esx5v"/></g><g><use fill="#fffefe" xlink:href="#esx5w"/></g><g><use fill="#fffefe" xlink:href="#esx5x"/></g><g><use fill="#fffefe" xlink:href="#esx5y"/></g><g><use fill="#fffefe" xlink:href="#esx5z"/></g><g><use fill="#fffefe" xlink:href="#esx5A"/></g><g><use fill="#fffefe" xlink:href="#esx5B"/></g><g><use fill="#fffefe" xlink:href="#esx5C"/></g><g><use fill="#fffefe" xlink:href="#esx5D"/></g><g><use fill="#fffefe" xlink:href="#esx5E"/></g><g><use fill="#fffefe" xlink:href="#esx5F"/></g><g><use fill="#fffefe" xlink:href="#esx5G"/></g><g><use fill="#fffefe" xlink:href="#esx5H"/></g><g><use fill="#fffefe" xlink:href="#esx5I"/></g><g><use fill="#fffefe" xlink:href="#esx5J"/></g><g><use fill="#fffefe" xlink:href="#esx5K"/></g><g><use fill="#fffefe" xlink:href="#esx5L"/></g><g><use fill="#fffefe" xlink:href="#esx5M"/></g><g><use fill="#fffefe" xlink:href="#esx5N"/></g><g><use fill="#fffefe" xlink:href="#esx5O"/></g><g><use fill="#fffefe" xlink:href="#esx5P"/></g><g><use fill="#fffefe" xlink:href="#esx5Q"/></g><g><use fill="#fffefe" xlink:href="#esx5R"/></g><g><use fill="#fffefe" xlink:href="#esx5S"/></g><g><use fill="#fffefe" xlink:href="#esx5T"/></g><g><use fill="#fffefe" xlink:href="#esx5U"/></g><g><use fill="#fffefe" xlink:href="#esx5V"/></g></g></g></svg>