<svg xmlns="http://www.w3.org/2000/svg" xmlns:xlink="http://www.w3.org/1999/xlink" width="195" height="45" viewBox="0 0 195 45"><defs><path id="8yybc" d="M1154.97 4813.6l4.05-13.34 4.01 13.35zm.87-18.6l-9.84 29h5.83l1.7-5.67h10.95l1.7 5.67h5.82l-9.96-29z"/><path id="8yybd" d="M1175.14 4807.5h10.22l-11.36 12.64v3.86h18v-4.45h-11.15l11.15-12.64V4803h-16.86z"/><path id="8yybe" d="M1195 4824h5v-21h-5z"/><path id="8yybf" d="M1225.6 4802.45a8.08 8.08 0 0 0-6.66 3.27 6.4 6.4 0 0 0-5.8-3.27c-1.95 0-4.9.9-6.57 3.01v-2.37h-4.96v21.22h4.96v-8.87c0-2.08.04-4.08.91-5.73a4.47 4.47 0 0 1 3.84-2.46 3.2 3.2 0 0 1 3.2 2.5c.17.64.17 1.19.17 2.72v11.84h4.96v-9.98c0-1.82.12-3.52 1.08-5.09.67-1.1 1.96-2 3.54-2 3.8 0 3.5 3.36 3.5 5.35v11.72h4.96v-13.37c0-2.2.04-4.46-1.63-6.33-1.41-1.57-3.41-2.16-5.5-2.16"/><path id="8yybg" d="M1248.8 4812.09c-.05 2.97-.09 4.33-.84 5.73a4.58 4.58 0 0 1-4.04 2.25c-1.83 0-3.33-.81-3.87-2.68-.17-.55-.17-1.27-.17-2.12v-12.18h-5.04v12.27c0 3.18 0 5.17 1.42 7 .75.97 2.37 2.46 5.79 2.46a9.16 9.16 0 0 0 6.75-2.67v2.16h5v-21.22h-5z"/><path id="8yybh" d="M1263.94 4795.57l-5 5.46v2.05h-3.04v3.65h3.04v10.82c0 2.13 0 3.48.33 4.33.96 2.6 4.46 2.6 5.5 2.6 1.13 0 2.13-.1 3.63-.35v-4.28c-.71.2-1.33.25-2.08.25-2.38 0-2.38-1.15-2.38-3.78v-9.59h4.46v-3.65h-4.46z"/><path id="8yyba" d="M1270.51 4794.34h19.08v29.96h-19.08z"/><path id="8yybj" d="M1287.84 4804.74a7.56 7.56 0 0 0-5.7-2.3 9.02 9.02 0 0 0-6.63 2.8v-10.9h-5v29.96h5v-9.76c0-2.37 0-2.71.17-3.4.33-1.22 1.83-3.86 5.04-3.86 2.75 0 3.45 1.91 3.62 2.34.25.63.25 1.1.33 3.01v11.67h4.92v-13.11c0-2.42-.04-4.58-1.75-6.45"/><path id="8yybb" d="M1095 4787.16h44.02V4832H1095z"/><path id="8yybl" d="M1117 4829.5c-3.56 0-6.9-.98-9.78-2.68a19.98 19.98 0 0 1-9.77-17.24c0-7.37 3.93-13.8 9.77-17.24a19.19 19.19 0 0 1 19.55-.02 19.97 19.97 0 0 1 9.8 17.26c0 7.38-3.95 13.81-9.8 17.26a19.18 19.18 0 0 1-9.76 2.66zm0-42.34c-4 0-7.76 1.1-11 3.02a22.5 22.5 0 0 0-11 19.4 22.5 22.5 0 0 0 11 19.4 21.56 21.56 0 0 0 22 .02 22.5 22.5 0 0 0 11.02-19.42 22.5 22.5 0 0 0-11.03-19.41c-3.23-1.91-6.98-3.01-10.98-3.01z"/><path id="8yybm" d="M1114.17 4812.46c1.81 1.85 1.31 6.1 3.98 6.8l8.37-19.38-19.03 8.53c.67 2.62 4.82 2.15 6.68 4.05"/><clipPath id="8yybi"><use xlink:href="#8yyba"/></clipPath><clipPath id="8yybk"><use xlink:href="#8yybb"/></clipPath></defs><g><g transform="translate(-1095 -4787)"><g><use fill="#fdfdfd" xlink:href="#8yybc"/></g><g><use fill="#fdfdfd" xlink:href="#8yybd"/></g><g><use fill="#fdfdfd" xlink:href="#8yybe"/></g><g><g><use fill="#fdfdfd" xlink:href="#8yybf"/></g><g><use fill="#fdfdfd" xlink:href="#8yybg"/></g><g><use fill="#fdfdfd" xlink:href="#8yybh"/></g><g><g/><g clip-path="url(#8yybi)"><use fill="#fdfdfd" xlink:href="#8yybj"/></g></g><g><g/><g clip-path="url(#8yybk)"><use fill="#fdfdfd" xlink:href="#8yybl"/></g></g><g><use fill="#fdfdfd" xlink:href="#8yybm"/></g></g></g></g></svg>