<?xml version="1.0" encoding="utf-8"?>
<!-- Generator: Adobe Illustrator 22.1.0, SVG Export Plug-In . SVG Version: 6.00 Build 0)  -->
<svg version="1.1" id="Layer_1" xmlns="http://www.w3.org/2000/svg" xmlns:xlink="http://www.w3.org/1999/xlink" x="0px" y="0px"
	 viewBox="0 0 378.6 128.8" style="enable-background:new 0 0 378.6 128.8;" xml:space="preserve">
<style type="text/css">
	.st0{fill:#FF5100;}
	.st1{fill:#898A8D;}
	.st2{fill:#002554;}
	.st3{fill:#00A0DF;}
</style>
<g>
	<g>
		<g>
			<path class="st0" d="M82,95.2l4.5,7.8C99.9,95.3,109,80.8,109,64.2h-9C100,77.5,92.8,89,82,95.2z"/>
			<path class="st1" d="M86.5,25.3c-6.6-3.8-14.2-6-22.4-6c-8.2,0-15.8,2.2-22.4,6c-13.4,7.8-22.4,22.3-22.4,38.8h9
				c0-13.3,7.2-24.8,17.9-31c5.3-3.1,11.4-4.8,17.9-4.8c6.5,0,12.6,1.8,17.9,4.8c10.7,6.2,18,17.8,18,31.1h9
				C109,47.6,99.9,33.1,86.5,25.3z"/>
			<path class="st2" d="M64.1,100c-6.5,0-12.7-1.8-17.9-4.8l-4.5,7.8c6.6,3.8,14.3,6,22.4,6c8.2,0,15.8-2.2,22.4-6L82,95.2
				C76.8,98.3,70.6,100,64.1,100z"/>
			<path class="st3" d="M28.3,64.2h-9c0,16.6,9,31,22.4,38.8l4.5-7.8C35.5,89,28.3,77.4,28.3,64.2z"/>
		</g>
		<path class="st2" d="M46.7,62.1c1.2,4.7,8.8,3.9,12.3,7.3c3.3,3.3,2.4,11,7.3,12.3l15.4-34.9L46.7,62.1z M65.4,73.4
			c-0.7-2.3-1.6-4.9-3.6-6.9c-2-2-4.5-2.9-6.8-3.6l18.6-8.2L65.4,73.4z"/>
	</g>
	<g>
		<g>
			<g>
				<path class="st2" d="M152.4,78.6h-18.3l-2.8,9.6h-9.8L138,39.3h10.4L165,88.2h-9.8L152.4,78.6z M150,70.7l-6.7-22.5l-6.8,22.5
					H150z"/>
				<path class="st2" d="M197.7,53.6V60l-18.3,20.8h18.3v7.3H168v-6.4L186.7,61h-16.8v-7.4H197.7z"/>
				<path class="st2" d="M213,53.6h8.2v3.9c2.8-3.5,7.7-4.9,10.9-4.9c3.3,0,7.3,1.2,9.6,5.3c1.4-1.9,5-5.3,11.1-5.3
					c3.5,0,6.8,1,9.1,3.5c2.8,3,2.7,6.7,2.7,10.3v21.8h-8.2V69.1c0-3.3,0.5-8.7-5.8-8.7c-2.6,0-4.8,1.5-5.9,3.3
					c-1.6,2.6-1.8,5.3-1.8,8.3v16.3h-8.2V68.9c0-2.5,0-3.4-0.3-4.4c-0.6-2.3-2.4-4.1-5.3-4.1c-2.5,0-4.9,1.5-6.4,4
					c-1.5,2.7-1.5,6-1.5,9.3v14.5H213V53.6z"/>
				<path class="st2" d="M299.8,53.6v34.6h-8.3v-3.5c-1.5,1.4-4.8,4.4-11.2,4.4c-5.7,0-8.4-2.4-9.6-4c-2.4-3-2.4-6.2-2.4-11.4v-20
					h8.4v19.9c0,1.4,0,2.6,0.3,3.5c0.9,3,3.4,4.4,6.4,4.4c3.5,0,5.6-1.9,6.7-3.7c1.2-2.3,1.3-4.5,1.4-9.3V53.6H299.8z"/>
				<path class="st2" d="M316.6,59.5v15.6c0,4.3,0,6.2,3.9,6.2c1.2,0,2.3-0.1,3.5-0.4v7c-2.5,0.4-4.2,0.6-6,0.6
					c-1.7,0-7.5,0-9.1-4.2c-0.6-1.4-0.6-3.6-0.6-7.1V59.5h-5.1v-6h5.1v-3.4l8.3-8.9v12.3h7.4v6H316.6z"/>
				<path class="st2" d="M335.9,39.3v17.8c2.6-2.6,6.2-4.6,11-4.6c4.3,0,7.6,1.7,9.5,3.7c2.8,3,2.9,6.6,2.9,10.5v21.4h-8.2v-19
					c-0.1-3.1-0.1-3.9-0.6-4.9c-0.3-0.7-1.5-3.8-6-3.8c-5.3,0-7.8,4.3-8.4,6.3c-0.3,1.1-0.3,1.7-0.3,5.5v15.9h-8.3V39.3H335.9z"/>
				<g>
					<path class="st2" d="M209.4,53.6v34.6h-8.2V53.6H209.4z"/>
				</g>
				<rect x="201.2" y="41.1" class="st2" width="8.2" height="8.2"/>
			</g>
		</g>
	</g>
</g>
</svg>
