<?xml version="1.0" encoding="utf-8"?>
<!-- Generator: Adobe Illustrator 22.1.0, SVG Export Plug-In . SVG Version: 6.00 Build 0)  -->
<svg version="1.1" id="Layer_1" xmlns="http://www.w3.org/2000/svg" xmlns:xlink="http://www.w3.org/1999/xlink" x="0px" y="0px"
	 viewBox="0 0 128.8 128.8" style="enable-background:new 0 0 128.8 128.8;" xml:space="preserve">
<style type="text/css">
	.st0{fill:#FF5100;}
	.st1{fill:#898A8D;}
	.st2{fill:#002554;}
	.st3{fill:#00A0DF;}
</style>
<g>
	<g>
		<g>
			<path class="st0" d="M82,95.2l4.5,7.8C99.9,95.3,109,80.8,109,64.2h-9C100,77.5,92.8,89,82,95.2z"/>
			<path class="st1" d="M86.5,25.3c-6.6-3.8-14.2-6-22.4-6c-8.2,0-15.8,2.2-22.4,6c-13.4,7.8-22.4,22.3-22.4,38.8h9
				c0-13.3,7.2-24.8,17.9-31c5.3-3.1,11.4-4.8,17.9-4.8c6.5,0,12.6,1.8,17.9,4.8c10.7,6.2,18,17.8,18,31.1h9
				C109,47.6,99.9,33.1,86.5,25.3z"/>
			<path class="st2" d="M64.1,100c-6.5,0-12.7-1.8-17.9-4.8l-4.5,7.8c6.6,3.8,14.3,6,22.4,6c8.2,0,15.8-2.2,22.4-6L82,95.2
				C76.8,98.3,70.6,100,64.1,100z"/>
			<path class="st3" d="M28.3,64.2h-9c0,16.6,9,31,22.4,38.8l4.5-7.8C35.5,89,28.3,77.4,28.3,64.2z"/>
		</g>
		<path class="st2" d="M46.7,62.1c1.2,4.7,8.8,3.9,12.3,7.3c3.3,3.3,2.4,11,7.3,12.3l15.4-34.9L46.7,62.1z M65.4,73.4
			c-0.7-2.3-1.6-4.9-3.6-6.9c-2-2-4.5-2.9-6.8-3.6l18.6-8.2L65.4,73.4z"/>
	</g>
</g>
</svg>
