<svg xmlns="http://www.w3.org/2000/svg" width="146" height="146" viewBox="0 0 146 146">
  <defs>
    <style>
      .a {
        fill: #b1e3f7;
      }
    </style>
  </defs>
  <title>base</title>
  <g>
    <path class="a" d="M73,0a73,73,0,1,0,73,73A73,73,0,0,0,73,0Zm0,142a69,69,0,1,1,69-69A69.07,69.07,0,0,1,73,142Z"/>
    <path class="a" d="M134,70h-2.08A59,59,0,0,0,75,14.05V12a2,2,0,0,0-4,0v2.05A59,59,0,0,0,14.08,70H12a2,2,0,0,0,0,4h2A59,59,0,0,0,71,132V134a2,2,0,0,0,4,0V132A59,59,0,0,0,132,74h2a2,2,0,0,0,0-4ZM75,128v-4a2,2,0,0,0-4,0v4A55,55,0,0,1,18,74h4a2,2,0,0,0,0-4H18.08A55.07,55.07,0,0,1,71,18.05V22a2,2,0,0,0,4,0V18.05a55.07,55.07,0,0,1,52.92,52H124a2,2,0,0,0,0,4h4A55,55,0,0,1,75,128Z"/>
  </g>
</svg>
