<svg xmlns="http://www.w3.org/2000/svg" width="57.5" height="57.5" viewBox="0 0 57.5 57.5">
  <defs>
    <style>
      .a {
        fill: #b1e3f7;
      }
    </style>
  </defs>
  <title>arrow</title>
  <g>
    <path class="a" d="M21.75,28.75a7,7,0,1,0,7-7A7,7,0,0,0,21.75,28.75Zm7-3a3,3,0,1,1-3,3A3,3,0,0,1,28.75,25.75Z"/>
    <path class="a" d="M55.5,0a2.15,2.15,0,0,0-.77.15l-31,12.7A20,20,0,0,0,12.85,23.77l-12.7,31A2,2,0,0,0,2,57.5a1.92,1.92,0,0,0,.76-.16l31-12.69A20,20,0,0,0,44.65,33.73l12.69-31A2,2,0,0,0,55.5,0ZM41,32.21A16.07,16.07,0,0,1,32.21,41L5.67,51.83,16.55,25.28a16.1,16.1,0,0,1,8.73-8.73L51.83,5.67Z"/>
  </g>
</svg>
