<svg xmlns="http://www.w3.org/2000/svg" xmlns:xlink="http://www.w3.org/1999/xlink" width="145" height="145" viewBox="0 0 145 145"><defs><path id="sj2ga" d="M648 860h144.06v144.06H648z"/><path id="sj2gc" d="M720.03 860a72.03 72.03 0 1 1 0 144.06 72.03 72.03 0 0 1 0-144.06zm0 4A68.11 68.11 0 0 0 652 932.03a68.11 68.11 0 0 0 68.03 68.04 68.1 68.1 0 0 0 68.04-68.04A68.11 68.11 0 0 0 720.03 864z"/><path id="sj2gd" d="M720.03 872.53a59.5 59.5 0 1 1 0 119.01 59.5 59.5 0 0 1 0-119.01zm0 4c-30.6 0-55.5 24.9-55.5 55.5 0 30.61 24.9 55.51 55.5 55.51 30.61 0 55.51-24.9 55.51-55.5 0-30.61-24.9-55.51-55.5-55.51z"/><path id="sj2ge" d="M720.03 871.27v9.4"/><path id="sj2gf" d="M720.03 992.79v-9.4"/><path id="sj2gg" d="M780.79 932.03h-9.4"/><path id="sj2gh" d="M659.27 932.03h9.4"/><path id="sj2gi" d="M721.96 945.17l-28.43 14.21a.63.63 0 0 1-.84-.84l14.21-28.43a25.05 25.05 0 0 1 11.21-11.2l28.43-14.22c.54-.27 1.11.3.84.84l-14.21 28.43a25.05 25.05 0 0 1-11.2 11.2z"/><path id="sj2gj" d="M720.03 926.4a6.26 6.26 0 1 1 0 12.53 6.26 6.26 0 0 1 0-12.53zm0 4a2.27 2.27 0 1 0 0 4.53 2.27 2.27 0 0 0 0-4.53z"/><clipPath id="sj2gb"><use xlink:href="#sj2ga"/></clipPath></defs><g><g opacity=".3" transform="translate(-648 -860)"><g opacity=".3"><g opacity=".3"/><g clip-path="url(#sj2gb)" opacity=".3"><use fill="#009fdf" xlink:href="#sj2gc"/></g></g><g opacity=".3"><use fill="#009fdf" xlink:href="#sj2gd"/></g><g opacity=".3"><use fill="#fff" fill-opacity="0" stroke="#009fdf" stroke-linecap="round" stroke-miterlimit="50" stroke-width="4" xlink:href="#sj2ge"/></g><g opacity=".3"><use fill="#fff" fill-opacity="0" stroke="#009fdf" stroke-linecap="round" stroke-miterlimit="50" stroke-width="4" xlink:href="#sj2gf"/></g><g opacity=".3"><use fill="#fff" fill-opacity="0" stroke="#009fdf" stroke-linecap="round" stroke-miterlimit="50" stroke-width="4" xlink:href="#sj2gg"/></g><g opacity=".3"><use fill="#fff" fill-opacity="0" stroke="#009fdf" stroke-linecap="round" stroke-miterlimit="50" stroke-width="4" xlink:href="#sj2gh"/></g><g opacity=".3"><use fill="#fff" fill-opacity="0" stroke="#009fdf" stroke-miterlimit="50" stroke-width="4" xlink:href="#sj2gi"/></g><g opacity=".3"><use fill="#009fdf" xlink:href="#sj2gj"/></g></g></g></svg>