<svg xmlns="http://www.w3.org/2000/svg" xmlns:xlink="http://www.w3.org/1999/xlink" width="659.93" height="659.8" viewBox="0 0 659.93 659.8"><defs><path id="ycx2a" d="M1194.23 1690.17c105.19-15.85 188.91-90.86 216.47-193.06 6.1-22.72 6.89-31.17 6.89-65.77 0-32.22-1.06-43.57-5.57-59.95-12.98-47.54-32.32-82.93-63.85-116.2-26.5-28-46.37-42.53-80.02-58.64-34.97-16.9-60.14-22.97-101.74-24.56-53.79-2.11-95.91 8.45-142.81 35.92-24.38 14.26-63.06 49.65-80.02 73.16-16.42 22.71-34.18 61.8-41.33 89.8-8.21 32.74-8.21 92.96 0 123.07 13.51 49.12 36.03 88.2 70.48 122.28 41.33 40.93 89.82 65.5 145.72 73.95 29.15 4.75 46.1 4.49 75.78 0zm-64.91 71.04c-37.63-5.02-50.88-7.92-72.87-14.79-113.93-36.18-198.45-129.67-224.41-248.26-6.63-30.37-6.63-100.36 0-130.73 29.4-136.28 135.65-239.28 269.46-260.94 160.3-25.88 314.23 64.18 367.75 215.25 13.78 39.35 17.75 62.86 17.75 109.6 0 45.43-3.7 69.46-16.16 106.7-37.1 110.13-135.92 196.5-250.64 218.15-22 3.96-76.05 7.13-90.88 5.02z"/><path id="ycx2b" d="M1219.93 1490.24c-2.12-4.76-14.84-34.07-28.62-64.97-24.64-56-24.64-56.26-27.82-47.54-9.8 28-25.17 45.42-50.87 57.04l-16.69 7.4 63.06 28c34.7 15.58 63.32 28.25 63.85 28.25.27.27-1.06-3.7-2.91-8.18zm-61.47 16.37c-68.36-30.37-126.12-55.99-128.24-57.31-3.18-1.85-2.91-3.7.8-10.83 5.03-9.77 19.34-17.7 51.93-28.26 32.59-10.83 41.33-20.07 54.05-58.9 10.33-30.9 21.99-48.06 32.32-48.06 3.98 0 15.63 24.3 59.88 124.92 61.74 139.98 59.09 133.9 56.17 133.64-1.32-.26-58.29-25.1-126.91-55.2z"/></defs><g><g opacity="1" transform="matrix(1 0 0 -1 -827.07 1761.88)"><g opacity=".9"><use fill="#ffffff" xlink:href="#ycx2a"/></g><g opacity=".9"><use fill="#ffffff" xlink:href="#ycx2b"/></g></g></g></svg>