<svg xmlns="http://www.w3.org/2000/svg" xmlns:xlink="http://www.w3.org/1999/xlink" width="35" height="35" viewBox="0 0 35 35"><defs><path id="kf65a" d="M154 179.5a3.5 3.5 0 1 1 0 7 3.5 3.5 0 0 1 0-7m0-1.5a5 5 0 1 0 0 10 5 5 0 0 0 0-10"/><path id="kf65b" d="M167 179.5a3.5 3.5 0 1 1 0 7 3.5 3.5 0 0 1 0-7m0-1.5a5 5 0 1 0 0 10 5 5 0 0 0 0-10"/><path id="kf65c" d="M179 179.5a3.5 3.5 0 1 1 0 7 3.5 3.5 0 0 1 0-7m0-1.5a5 5 0 1 0 0 10 5 5 0 0 0 0-10"/><path id="kf65d" d="M160 166.5a3.5 3.5 0 1 1 0 7 3.5 3.5 0 0 1 0-7m0-1.5a5 5 0 1 0 0 10 5 5 0 0 0 0-10"/><path id="kf65e" d="M173 166.5a3.5 3.5 0 1 1 0 7 3.5 3.5 0 0 1 0-7m0-1.5a5 5 0 1 0 0 10 5 5 0 0 0 0-10"/><path id="kf65f" d="M160 191.5a3.5 3.5 0 1 1 0 7 3.5 3.5 0 0 1 0-7m0-1.5a5 5 0 1 0 0 10 5 5 0 0 0 0-10"/><path id="kf65g" d="M173 191.5a3.5 3.5 0 1 1 0 7 3.5 3.5 0 0 1 0-7m0-1.5a5 5 0 1 0 0 10 5 5 0 0 0 0-10"/></defs><g><g transform="translate(-149 -165)"><g><use fill="#172952" xlink:href="#kf65a"/></g><g><use fill="#172952" xlink:href="#kf65b"/></g><g><use fill="#172952" xlink:href="#kf65c"/></g><g><use fill="#172952" xlink:href="#kf65d"/></g><g><use fill="#172952" xlink:href="#kf65e"/></g><g><use fill="#172952" xlink:href="#kf65f"/></g><g><use fill="#172952" xlink:href="#kf65g"/></g></g></g></svg>