<svg xmlns="http://www.w3.org/2000/svg" xmlns:xlink="http://www.w3.org/1999/xlink" width="500" height="500" viewBox="0 0 500 500"><defs><path id="iw9na" d="M949.7 1655.86a69.7 69.7 0 1 1-.01 139.4 69.7 69.7 0 0 1 0-139.4zm0 20.9a48.84 48.84 0 0 0-48.8 48.8c0 26.9 21.9 48.78 48.8 48.78a48.84 48.84 0 0 0 48.78-48.79c0-26.9-21.9-48.78-48.79-48.78z"/><path id="iw9nb" d="M1129.55 1655.86a69.7 69.7 0 1 1 0 139.4 69.7 69.7 0 0 1 0-139.4zm0 20.9a48.84 48.84 0 0 0-48.78 48.8c0 26.9 21.89 48.78 48.78 48.78a48.84 48.84 0 0 0 48.79-48.79c0-26.9-21.9-48.78-48.79-48.78z"/><path id="iw9nc" d="M1310.3 1655.86a69.7 69.7 0 1 1 0 139.4 69.7 69.7 0 0 1 0-139.4zm0 20.9a48.84 48.84 0 0 0-48.78 48.8c0 26.9 21.89 48.78 48.78 48.78a48.84 48.84 0 0 0 48.79-48.79c0-26.9-21.9-48.78-48.79-48.78z"/><path id="iw9nd" d="M1040.52 1476a69.7 69.7 0 1 1 0 139.4 69.7 69.7 0 0 1 0-139.4zm0 20.9a48.84 48.84 0 0 0-48.78 48.8c0 26.9 21.89 48.78 48.78 48.78a48.84 48.84 0 0 0 48.79-48.79c0-26.9-21.9-48.78-48.79-48.78z"/><path id="iw9ne" d="M1220.37 1476a69.7 69.7 0 1 1 0 139.4 69.7 69.7 0 0 1 0-139.4zm0 20.9a48.84 48.84 0 0 0-48.78 48.8c0 26.9 21.89 48.78 48.78 48.78a48.84 48.84 0 0 0 48.79-48.79c0-26.9-21.9-48.78-48.79-48.78z"/><path id="iw9nf" d="M1040.52 1836.61a69.7 69.7 0 1 1 0 139.4 69.7 69.7 0 0 1 0-139.4zm0 20.9a48.84 48.84 0 0 0-48.78 48.8c0 26.9 21.89 48.78 48.78 48.78a48.84 48.84 0 0 0 48.79-48.79c0-26.9-21.9-48.78-48.79-48.78z"/><path id="iw9ng" d="M1220.37 1836.61a69.7 69.7 0 1 1 0 139.4 69.7 69.7 0 0 1 0-139.4zm0 20.9a48.84 48.84 0 0 0-48.78 48.8c0 26.9 21.89 48.78 48.78 48.78a48.84 48.84 0 0 0 48.79-48.79c0-26.9-21.9-48.78-48.79-48.78z"/></defs><g><g opacity=".15" transform="translate(-880 -1476)"><g opacity=".15"><use fill="#8a8d89" xlink:href="#iw9na"/></g><g opacity=".15"><use fill="#8a8d89" xlink:href="#iw9nb"/></g><g opacity=".15"><use fill="#8a8d89" xlink:href="#iw9nc"/></g><g opacity=".15"><use fill="#8a8d89" xlink:href="#iw9nd"/></g><g opacity=".15"><use fill="#8a8d89" xlink:href="#iw9ne"/></g><g opacity=".15"><use fill="#8a8d89" xlink:href="#iw9nf"/></g><g opacity=".15"><use fill="#8a8d89" xlink:href="#iw9ng"/></g></g></g></svg>