<svg xmlns="http://www.w3.org/2000/svg" xmlns:xlink="http://www.w3.org/1999/xlink" width="34" height="34" viewBox="0 0 34 34"><defs><path id="bzbda" d="M163.28 182a4.72 4.72 0 1 1 9.44 0 4.72 4.72 0 0 1-9.44 0zm12.28 0a4.72 4.72 0 1 1 9.44 0 4.72 4.72 0 0 1-9.44 0zM151 182a4.72 4.72 0 1 1 9.44 0 4.72 4.72 0 0 1-9.44 0zm12.28 12.28a4.72 4.72 0 1 1 9.44 0 4.72 4.72 0 0 1-9.44 0zm0-24.56a4.72 4.72 0 1 1 9.44 0 4.72 4.72 0 0 1-9.44 0z"/></defs><g><g transform="translate(-151 -165)"><use fill="#172952" xlink:href="#bzbda"/></g></g></svg>