<svg xmlns="http://www.w3.org/2000/svg" xmlns:xlink="http://www.w3.org/1999/xlink" width="500" height="500" viewBox="0 0 500 500"><defs><path id="f8yva" d="M1060.56 2382a69.45 69.45 0 1 1 138.89 0 69.45 69.45 0 0 1-138.89 0zm180.55 0a69.45 69.45 0 1 1 138.89 0 69.45 69.45 0 0 1-138.89 0zM880 2382a69.45 69.45 0 1 1 138.89 0 69.45 69.45 0 0 1-138.89 0zm180.56 180.55a69.45 69.45 0 1 1 138.89 0 69.45 69.45 0 0 1-138.89 0zm0-361.1a69.45 69.45 0 1 1 138.89 0 69.45 69.45 0 0 1-138.89 0z"/></defs><g><g opacity=".1" transform="translate(-880 -2132)"><use fill="#172952" xlink:href="#f8yva"/></g></g></svg>