<svg xmlns="http://www.w3.org/2000/svg" xmlns:xlink="http://www.w3.org/1999/xlink" width="34" height="33" viewBox="0 0 34 33"><defs><path id="juzpa" d="M154.5 1763.35a3.15 3.15 0 1 1 0 6.3 3.15 3.15 0 0 1 0-6.3m0-1.35a4.5 4.5 0 1 0 0 9 4.5 4.5 0 0 0 0-9"/><path id="juzpb" d="M166.5 1763.35a3.15 3.15 0 1 1 0 6.3 3.15 3.15 0 0 1 0-6.3m0-1.35a4.5 4.5 0 1 0 0 9 4.5 4.5 0 0 0 0-9"/><path id="juzpc" d="M179.5 1763.35a3.15 3.15 0 1 1 0 6.3 3.15 3.15 0 0 1 0-6.3m0-1.35a4.5 4.5 0 1 0 0 9 4.5 4.5 0 0 0 0-9"/><path id="juzpd" d="M160.5 1751.35a3.15 3.15 0 1 1 0 6.3 3.15 3.15 0 0 1 0-6.3m0-1.35a4.5 4.5 0 1 0 0 9 4.5 4.5 0 0 0 0-9"/><path id="juzpe" d="M172.5 1751.35a3.15 3.15 0 1 1 0 6.3 3.15 3.15 0 0 1 0-6.3m0-1.35a4.5 4.5 0 1 0 0 9 4.5 4.5 0 0 0 0-9"/><path id="juzpf" d="M166.5 1738a4.5 4.5 0 1 0 0 9 4.5 4.5 0 0 0 0-9"/></defs><g><g transform="translate(-150 -1738)"><g><use fill="#8f918e" xlink:href="#juzpa"/></g><g><use fill="#8f918e" xlink:href="#juzpb"/></g><g><use fill="#8f918e" xlink:href="#juzpc"/></g><g><use fill="#8f918e" xlink:href="#juzpd"/></g><g><use fill="#8f918e" xlink:href="#juzpe"/></g><g><use fill="#172952" xlink:href="#juzpf"/></g></g></g></svg>