<svg xmlns="http://www.w3.org/2000/svg" xmlns:xlink="http://www.w3.org/1999/xlink" width="18" height="17" viewBox="0 0 18 17"><defs><path id="jkhma" d="M1011.09 47c-1.5 0-3.1-.43-4.76-1.27a17.5 17.5 0 0 1-4.35-3.21 17.55 17.55 0 0 1-3.21-4.36 10.58 10.58 0 0 1-1.27-4.76c0-.98.91-1.92 1.3-2.28.56-.52 1.45-1.12 2.09-1.12.32 0 .7.2 1.18.66.36.33.77.79 1.17 1.31.25.32 1.47 1.93 1.47 2.7 0 .64-.72 1.08-1.48 1.55-.29.18-.6.37-.81.54-.24.19-.28.29-.28.31.8 2.01 3.27 4.48 5.28 5.28.02 0 .12-.04.3-.28.18-.22.37-.52.55-.82.47-.76.9-1.47 1.54-1.47.78 0 2.4 1.22 2.7 1.47.53.4.99.81 1.32 1.17.45.49.66.86.66 1.18 0 .64-.6 1.53-1.12 2.1-.36.39-1.3 1.3-2.28 1.3z"/></defs><g><g opacity=".9" transform="translate(-997 -30)"><use fill="#0f2453" xlink:href="#jkhma"/></g></g></svg>